<?xml version="1.0" encoding="UTF-8"?>
<svg id="Layer_2" xmlns="http://www.w3.org/2000/svg" viewBox="0 0 1463.19 771.46">
  <defs>
    <style>
      .cls-1 {
        fill: #fff;
        fill-rule: evenodd;
      }
    </style>
  </defs>
  <g id="svg2">
    <g id="g36">
      <path id="path38" class="cls-1" d="M314.43,0C461.55,0,585.07,101,619.4,237.44c23.42-7.24,48.3-11.14,74.1-11.14,106.89,0,198.18,66.95,234.13,161.21,21.37-10.09,45.26-15.74,70.44-15.74,64.52,0,120.38,37.02,147.52,90.98,14.05-32.29,46.25-54.87,83.75-54.87,50.4,0,91.29,40.88,91.29,91.3,0,2.89-.12,5.75-.37,8.56,14.67-10.09,32.48-16.01,51.61-16.01,50.44,0,91.32,40.88,91.32,91.3s-40.88,91.3-91.32,91.3c-16.32,0-31.64-4.28-44.88-11.79-11.32,61.75-65.73,108.92-130.62,108.92H175.38c-73.02,0-132.76-59.75-132.76-132.77,0-41.22,19.01-78.22,48.76-102.62C34.9,479.23,0,400.91,0,314.45,0,140.79,140.79,0,314.43,0"/>
    </g>
  </g>
</svg>