<?xml version="1.0" encoding="UTF-8"?>
<svg id="Layer_2" xmlns="http://www.w3.org/2000/svg" viewBox="0 0 284.75 259.17">
  <defs>
    <style>
      .cls-1 {
        fill: none;
        stroke: #000;
        stroke-miterlimit: 10;
        stroke-width: .5px;
      }
    </style>
  </defs>
  <g id="Layer_2-2" data-name="Layer_2">
    <g>
      <path d="M284.69,167.6v-3.24h-21.58s0,.06,0,.09c.23.97.32,1.99.08,2.95.02.13.05.26.05.39.01,22.42.03,44.84-.04,67.26,0,.93-.63,2.07-1.33,2.75-20.73,20.23-52.89,24.03-78.01,9.39-16.94-9.87-29.38-23.98-38.9-40.86-2.43-4.31-4.43-8.87-6.57-13.2.08-.06.13-.11.19-.16-.09-.27-.17-.54-.22-.82,0,0,0-.01,0-.02-.08-.15-.16-.31-.23-.47-.08-.19-.13-.38-.19-.57-.14-.28-.3-.56-.43-.84-.4-.84-.71-1.69-.93-2.51-5.24-14.89-7.15-30.26-6.13-45.98,1.05-16.18,4.97-31.58,13.03-45.82,19.95-35.26,65.91-44.46,97.19-22.04,13.94,9.99,24.31,22.91,32.35,37.88.38.7.79,1.38,1.19,2.07.41-8.25.23-16.27.5-24.28.11-3.25-1.02-5.48-3.19-7.67-14.21-14.35-31.55-22.27-51.51-23.49-27.05-1.66-51.8,5.5-73.35,22.25-34.55,26.87-47.22,73.48-31.32,114.29.31.79.53,1.61.83,2.53-.75.09-1.1.15-1.46.18-20.26,1.83-37.74-4.98-52.82-17.96C23.83,146.95,11.4,95.71,28.86,49.59,36.89,28.38,51.24,13.19,73.6,6.56c18.49-5.48,36.18-3.84,52.96,5.83,13.91,8.02,24.33,19.57,32.86,32.96,2.12,3.33,4.01,6.82,6.15,10.47.15-.53.26-.76.26-.99.01-8.66.05-17.32-.04-25.97,0-.97-.55-2.1-1.19-2.87-5.42-6.54-12.1-11.6-19.48-15.67C127.18.45,107.98-1.75,87.95,1.24c-17.03,2.54-32.81,8.28-46.77,18.47C2.22,48.17-10.35,100.51,8.87,142.26c17.56,38.16,58.96,64.87,104.47,57.47,3.05-.5,4.19.3,5.44,2.91,20.18,42.24,68.08,65.83,114.03,53.07,19.36-5.37,36.22-14.56,49.55-29.81,1.57-1.79,2.41-3.58,2.39-6.08-.11-17.41-.06-34.81-.06-52.22Z"/>
      <path d="M123.14,197.34c13.27-5.14,26.14-11.14,38.04-19,6.04-3.99,11.87-8.29,17.5-12.83s10.93-9.27,16.47-13.82c10.8-8.88,22.4-17.2,35.76-21.73,12.28-4.17,27.83-5.74,38.52,3.09,9.66,7.98,13.37,21.63,13.81,33.69.03.78,1.49.57,1.47-.1-.4-10.97-3.37-22.79-10.81-31.18-4.06-4.58-9.33-7.61-15.28-8.98-6.55-1.51-13.51-1.06-20.05.29-29.01,5.97-48.8,29.96-71.88,46.44-6.85,4.89-13.96,9.37-21.45,13.21s-15.02,7.05-22.76,10.04c-.92.36-.11,1.18.65.89h0Z"/>
      <path d="M283.7,169.51c.59,0,1.52-.88.55-.88-.59,0-1.52.88-.55.88h0Z"/>
      <path class="cls-1" d="M189.63,155.54c20.45-19.2,45.76-22.13,61.03-10.95,8.82,6.45,12.16,16.47,13.49,22.6"/>
      <path d="M243.02,136.29l6.22,1.81c1.77.52,3.9.87,5.32,2.14s2.38,3.08,3.41,4.62c1.19,1.78,2.34,3.59,3.47,5.41.49.79,3.31-.13,2.69-1.12-1.16-1.87-2.35-3.73-3.57-5.56-1.1-1.65-2.16-3.68-3.79-4.86-1.52-1.1-3.44-1.5-5.22-2.02l-6.75-1.97c-.62-.18-1.59.11-2.05.55s-.32.83.27,1h0Z"/>
      <path d="M243.25,136.89c3.51.02,6.28,3,8.49,5.37,2.58,2.77,5.3,5.39,8.23,7.79.99.81,3.52-.61,2.23-1.67-3.2-2.62-6.01-5.56-8.88-8.53-2.69-2.79-5.79-5.06-9.82-5.08-.63,0-1.53.49-1.6,1.17-.08.76.77.94,1.34.95h0Z"/>
      <path d="M254.03,141.48c2.34,1.57,4.43,3.47,6.21,5.66l.03-.48-.09.1,1.93-.73c.26-.01.26.1.19-.1-.05-.14-.31-.29-.42-.4-.21-.2-.41-.41-.61-.62-.47-.49-.92-.99-1.36-1.51-.86-1.02-1.62-2.1-2.38-3.2-.66-.94-1.44-1.47-2.62-1.39-.97.06-2.65.52-2.95,1.61s.96,1.55,1.78,1.67c.62.09,1.12.08,1.62.51s.82,1.02,1.04,1.65c.41,1.17.57,2.41.99,3.59.39,1.1.89,2.15,1.49,3.15,1.37,2.27,3.2,4.22,5.4,5.69.52.35,1.36.13,1.89-.08.19-.07,1.32-.64.83-.97-3.66-2.45-6.24-6.17-7.26-10.46-.26-1.09-.49-2.18-1.18-3.1-.74-.98-1.7-1.14-2.84-1.32-.23-.04-.45-.07-.63-.23s-.14-.42-.24-.54l.02-.1-1.14.28s.28.16.32.19c.22.16.4.38.57.6.71.92,1.31,1.91,2.04,2.82.85,1.06,1.76,2.06,2.73,3s2.65.79,3.55-.22c.14-.16.16-.31.03-.48-1.78-2.19-3.86-4.09-6.21-5.66-.52-.35-1.36-.13-1.89.08-.19.07-1.32.64-.83.97h0Z"/>
      <path d="M263.64,158.9c.71,2.49,1.57,4.93,2.59,7.31.39.92,3.08.22,2.9-.78-.72-3.86-1.44-7.73-2.17-11.59l-2.9.78c1.57,4.02,3.14,8.04,4.71,12.06.34.86,2.88.28,2.9-.58.1-4.53-1.41-8.76-3-12.94l-2.9.78c1.79,4.24,3.65,8.45,5.58,12.63.4.86,2.76.29,2.9-.58.39-2.46-.33-4.81-1.18-7.09s-1.84-4.63-2.89-6.89c-.43-.93-3.25-.1-2.9.78.96,2.36,1.91,4.73,2.87,7.09.87,2.14,1.78,4.26,3.17,6.11.48.63,2.72.06,2.79-.75.19-2.21-.69-4.35-1.36-6.42s-1.42-4.27-2.19-6.39c-.35-.95-3.17-.17-2.9.78,1.25,4.32,3.27,8.37,5.93,12,.49.67,3-.01,2.8-.95-.79-3.72-2.76-6.98-4.71-10.19-.44-.73-3.18.16-2.8.95.93,1.93,1.85,3.86,2.78,5.8.64,1.33,1.24,3.69,2.99,3.87.59.06,2.53-.18,2.34-1.15-.62-3.23-1.87-6.25-3.65-9.01-.46-.71-3.17.15-2.8.95,1.49,3.15,2.98,6.3,4.46,9.45.42.88,2.4.27,2.79-.38.91-1.5.07-3.11-.54-4.57-.74-1.77-1.57-3.51-2.45-5.22-.47-.91-3.27-.09-2.9.78.81,1.89,1.62,3.77,2.43,5.66.6,1.39.99,3.26,2.62,3.7.57.16,2.55-.25,2.34-1.15-.8-3.53-2.07-6.92-3.8-10.1l-2.8.95c2.47,2.71,2.24,6.82,4.56,9.66.56.68,2.88,0,2.8-.95-.26-3-1.08-5.89-2.42-8.58-.46-.92-3.26-.1-2.9.78,1.26,3.05,2.26,6.19,3,9.4.22.95,3.08.23,2.9-.78-.44-2.4-.88-4.8-1.33-7.2l-2.9.78c.28,1.36.56,2.71.84,4.07.24,1.16.48,2.27,1.24,3.21.5.62,2.72.07,2.79-.75.27-3.06-1.79-5.6-1.9-8.6l-2.9.78c.51,1.93,1.01,3.87,1.52,5.8.25.96,3.04.22,2.9-.78-.1-.68-.19-1.35-.29-2.03-.13-.92-3.05-.26-2.9.78.1.68.19,1.35.29,2.03l2.9-.78c-.51-1.93-1.01-3.87-1.52-5.8-.26-.99-2.93-.2-2.9.78.11,2.84,2.16,5.33,1.91,8.2l2.79-.75c-.72-.9-.88-2.09-1.11-3.19l-.77-3.75c-.19-.94-3.08-.23-2.9.78.44,2.4.88,4.8,1.33,7.2l2.9-.78c-.73-3.22-1.73-6.36-3-9.4l-2.9.78c1.34,2.69,2.15,5.58,2.42,8.58l2.8-.95c-2.31-2.83-2.07-6.92-4.56-9.66-.53-.59-3.23.14-2.8.95,1.73,3.18,3,6.57,3.8,10.1l2.34-1.15c-.47-.13-.77-1.21-.92-1.58-.33-.76-.66-1.53-.98-2.29-.68-1.58-1.36-3.16-2.03-4.74l-2.9.78c.79,1.52,1.53,3.07,2.21,4.64.48,1.1,1.72,3.14,1,4.34l2.79-.38c-1.49-3.15-2.98-6.3-4.46-9.45l-2.8.95c1.7,2.64,2.85,5.59,3.45,8.67l2.34-1.15c-.58-.06-.89-1.05-1.1-1.49l-1.21-2.53c-.78-1.63-1.57-3.27-2.35-4.9l-2.8.95c1.88,3.1,3.74,6.27,4.51,9.86l2.8-.95c-2.59-3.52-4.51-7.46-5.73-11.66l-2.9.78c.73,2.01,1.43,4.04,2.1,6.08s1.64,4.21,1.46,6.33l2.79-.75c-1.38-1.83-2.23-3.95-3.09-6.06-.92-2.27-1.84-4.53-2.76-6.8l-2.9.78c1.01,2.16,1.94,4.36,2.78,6.59s1.68,4.58,1.29,7l2.9-.58c-1.93-4.18-3.79-8.38-5.58-12.63-.4-.95-3.23-.12-2.9.78,1.52,4.01,3.09,8.19,3,12.55l2.9-.58c-1.57-4.02-3.14-8.04-4.71-12.06-.36-.93-3.08-.22-2.9.78.72,3.86,1.44,7.73,2.17,11.59l2.9-.78c-1.01-2.38-1.88-4.82-2.59-7.31-.27-.96-3.17-.18-2.9.78h0Z"/>
      <path d="M281.62,156.15c-.34-.47-.68-.93-1.03-1.4-.09-.1-.2-.17-.33-.2-.15-.06-.3-.1-.46-.09-.19-.01-.38,0-.56.05-.2.03-.39.08-.57.17l-.32.17c-.18.11-.33.25-.44.42l-.1.23c-.03.16,0,.3.11.42.34.47.68.93,1.03,1.4.09.1.2.17.33.2.15.06.3.1.46.09.19.01.38,0,.56-.05.2-.03.39-.08.57-.17l.32-.17c.18-.11.33-.25.44-.42l.1-.23c.03-.16,0-.3-.11-.42h0Z"/>
      <path d="M245.08,134.15c.91-.77,1.87-1.67,3-2.12.97-.38,2.12-.28,3.13-.09,2.5.48,4.73,1.79,6.9,3.07.51.3,1.36.04,1.87-.15.15-.05,1.31-.59.86-.86-2.83-1.66-5.8-3.34-9.16-3.44-1.76-.06-3.53.27-5.15.98-1.53.67-2.81,1.72-4.07,2.79-.52.44.45.52.69.51.66-.04,1.42-.27,1.94-.7h0Z"/>
      <path d="M250.66,133.08c.96,0,1.9.52,2.7,1.01,1.03.63,2.02,1.33,2.99,2.05,1.92,1.43,3.74,3,5.43,4.71.52.52,1.33.53,1.97.22.44-.21,1.21-.97.68-1.49-1.93-1.94-3.99-3.75-6.2-5.37s-4.48-3.25-7.3-3.24c-.63,0-1.52.48-1.6,1.17-.08.76.77.95,1.34.95h0Z"/>
      <path d="M259.89,145.26c1.56,2.36,3.25,4.63,5.05,6.8.37.4.81.67,1.33.8.58.26,1.2.39,1.84.38.76.05,1.52-.02,2.26-.2.8-.11,1.56-.34,2.3-.68l1.3-.69c.72-.44,1.31-1,1.77-1.69l.38-.91c.13-.64-.03-1.2-.45-1.69-1.8-2.18-3.49-4.45-5.05-6.8-.37-.4-.81-.67-1.33-.8-.58-.26-1.2-.39-1.84-.38-.76-.05-1.52.02-2.26.2-.8.11-1.56.34-2.3.68l-1.3.69c-.72.44-1.31,1-1.77,1.69l-.38.91c-.13.64.03,1.2.45,1.69h0Z"/>
      <path d="M249.5,137.73c.11.03.22.06.33.09l-1.05-.31c.72.22,1.39.56,2.02.97l-.76-.49c2.14,1.4,3.92,3.36,6.33,4.33,1.17.48,2.57.48,3.8.32.8-.09,1.58-.28,2.32-.57.73-.21,1.42-.51,2.07-.9l1.06-.74c.55-.42.94-.95,1.17-1.59v-.78c-.19-.56-.58-.95-1.14-1.16-.53-.22-1.03-.49-1.52-.8l.76.49c-1.12-.73-2.11-1.62-3.17-2.42-.72-.54-1.48-1.06-2.27-1.49-.87-.48-1.82-.75-2.78-.99-.67-.12-1.34-.14-2.02-.06-.78.02-1.54.14-2.3.36-.76.18-1.49.46-2.17.83-.62.27-1.2.62-1.72,1.06-.59.55-1.53,1.46-1.18,2.37s1.31,1.24,2.21,1.46h0Z"/>
      <path d="M250.51,137.38c1.11,2.23,3.51,3.21,4.91,5.19,1.66,2.35,2.64,5.23,3.71,7.88,2.33,5.79,4.43,11.67,6.59,17.52.26.7,1.48.77,2.03.8,1.37.07,2.93-.21,4.24-.58s2.79-.82,3.96-1.62c.46-.31,1.62-1,1.36-1.71-2.16-5.85-4.26-11.74-6.59-17.52-1.05-2.6-2.02-5.37-3.59-7.71-.74-1.1-1.62-2.06-2.64-2.9-.91-.74-1.85-1.39-2.38-2.47-.85-1.71-4.94-.59-6.27-.22-.73.21-6.08,1.8-5.32,3.32h0Z"/>
      <path d="M250.87,136.79c2.74,1.33,5.59,2.54,8.24,4.05,2.35,1.33,3.82,3.32,5.1,5.65,2.9,5.3,5.09,10.98,6.63,16.81.19.72,1.55.81,2.04.84,1.37.08,2.94-.19,4.24-.56s2.79-.83,3.95-1.63c.51-.35,1.55-.98,1.35-1.75-1.56-5.96-3.81-11.79-6.82-17.17-1.34-2.39-2.99-4.65-5.4-6.06-2.69-1.57-5.62-2.79-8.42-4.15-2.17-1.05-5.34-.18-7.47.63-.48.19-5.29,2.44-3.44,3.34h0Z"/>
      <path d="M261.49,145.3c.62,1.01,1.22,2.03,1.8,3.07l-.42-.75c2.33,4.14,4.37,8.42,6.11,12.84.93,2.36,4.65,2.05,6.61,1.48,1.36-.4,2.85-.96,3.86-1.99.61-.62,1.5-1.63,1.12-2.6-2.28-5.79-5.1-11.35-8.34-16.66-.51-.83-2.36-1.06-3.15-1.1-1.46-.06-3.22.28-4.55.89-1.12.52-2.47,1.2-3.09,2.32-.51.92-.52,1.58.04,2.49h0Z"/>
      <path d="M252.53,136.49c.37.03.91-.01,1.26.13-1.06-.44.07.04.32.11.41.11.8.26,1.21.39.92.3-.49-.3.46.18,1.41.72,2.74,1.56,3.98,2.54.7.55.75.61,1.51,1.35.64.62,1.26,1.26,1.86,1.9,1.18,1.26,2.36,2.55,3.42,3.91,1.13,1.45,1.67,2.37,2.24,3.9s.98,3.19,1.33,4.81c.79,3.73,1.49,7.48,2.21,11.23.21,1.07,1.46,1.8,2.38,2.1,1.32.42,3.07.35,4.38-.04,2.2-.65,5.37-2.38,4.83-5.16-.76-3.96-1.48-7.93-2.35-11.87s-2.36-7.5-4.93-10.59c-5.15-6.22-11.48-12.07-19.93-12.69-2.57-.19-6.41.83-7.58,3.42s1.01,4.2,3.4,4.38h0Z"/>
      <path d="M245.46,130.55c-.17.25-.18.28-.04.09.2-.24.12-.16-.23.23-.61.48-1.29.82-2.02,1.02-.56.17-.6.19-.13.06l-.91.2c.59-.07.43-.07-.48.02.23-.14.85-.04,1.1-.05.44-.01.88-.01,1.32,0,.38,0,.97.04.27,0,.88.06,1.76.16,2.63.29,1.83.28,2.53.45,4.1.97,1.68.56,3.3,1.26,4.86,2.08l8.29-5.46c.7.14-.31-.19-.43-.26l1.1,1.76.07-.18-3.58,2.82.2-.07-4.53.95h.26c-.77-.1-1.55-.21-2.32-.32,2.08.72,4.35,2.82,6.03,4.47,1.86,1.84,3.47,3.91,4.72,6.2,1.12,2.05,4.61,1.47,6.46.94,1.35-.39,2.82-.89,3.9-1.83.5-.43,1.65-1.43,1.23-2.22-1.87-3.42-4.26-6.52-7.25-9.02-1.55-1.29-3.23-2.38-4.99-3.37s-3.74-.82-5.57-.44c-2.18.45-5.3,1.43-6.14,3.74-.32.89.44,1.42,1.1,1.76.79.41,1.65.61,2.52.78,2.48.5,5.61-.49,7.66-1.84,1.44-.95,2.67-2.54.63-3.61-4.35-2.28-9.21-3.58-14.12-3.9-3.15-.2-6.37-.2-9.44.61s-6.38,2.23-7.77,5.25c-.37.81.49,1.5,1.1,1.76,1.07.46,2.67.4,3.77.22,2.33-.38,5.58-1.29,6.66-3.65h0Z"/>
      <path d="M235.72,137.16c-.32.13-.64.17-.97.14-.37-.02-.39-.01-.07.01.43.08.97.15.24-.02.75.17,1.48.44,2.2.69,1.36.48,2.71.99,4.05,1.54.63.26,1.26.53,1.89.8.42.18.83.38,1.25.57.3.14.57.28.12.05,1.36.68,2.69,1.4,3.99,2.2,1.14.7,2.25,1.45,3.32,2.26.54.41,1.07.83,1.59,1.27.26.22.51.45.77.67-.34-.3-.17-.17.06.06,1.95,1.9,3.65,4,5.04,6.34.57.96,2.28,1.52,3.28,1.6,1.31.11,2.58-.08,3.82-.53,1.83-.67,4.89-2.74,4.01-5.15-.39-1.07-.91-2.11-1.66-2.97-3.23-3.73-13.75-.2-10.62,5.06.36.61.72,1.22,1.08,1.83l10.62-5.06c-.46-.65-.92-1.29-1.39-1.94-2.95-4.13-13.77-.02-10.62,5.06,2.41,3.9,4.65,7.9,6.71,11.99l10.62-5.06c-.38-.52-.72-1.05-1.04-1.6-.35-.6.2.47-.09-.16-.15-.32-.28-.65-.4-.98l-11.59,3.11c.73,1.87,1.18,4.04,1.18,5.53,0,2.79,2.83,3.95,5.33,3.68,1.53-.16,3.15-.61,4.36-1.59.88-.71,2.04-1.8,2.04-3.03,0-2.66-.35-5.22-1.32-7.7-1.03-2.62-4.41-3.05-6.83-2.32-1.94.58-5.8,2.73-4.76,5.43.64,1.66,1.46,3.26,2.51,4.69,1.65,2.27,5.66,1.93,7.85.8,1.16-.6,2.46-1.45,2.99-2.71.49-1.17.35-2.01-.22-3.14-2.06-4.1-4.29-8.1-6.71-11.99l-10.62,5.06c.46.65.92,1.29,1.39,1.94,2.95,4.13,13.68.09,10.62-5.06-.36-.61-.72-1.22-1.08-1.83l-10.62,5.06c.21.24.38.54.59.77.35.38-.24-.67.1.25l11.11-4.08c-3.21-5.41-8.2-9.72-13.61-12.84-3.12-1.8-6.43-3.3-9.78-4.6-1.49-.58-3-1.17-4.55-1.58-2.83-.75-5.35-.78-8.23-.27-2.13.38-5.63,2.86-4.76,5.43.97,2.86,4.44,2.75,6.83,2.32h0Z"/>
      <path d="M224.07,135.65c1.37-.92,2.74-1.85,4.11-2.77.21-.14.49-.35.55-.62.05-.23-.09-.44-.3-.53-.61-.28-1.52-.1-2.05.26-1.37.92-2.74,1.85-4.11,2.77-.21.14-.49.35-.55.62-.05.23.09.44.3.53.61.28,1.52.1,2.05-.26h0Z"/>
      <path d="M220.68,137.25c.5-.46,1.04-.89,1.6-1.27.07-.05.13-.09.2-.13.14-.09-.1.06-.12.08.04-.02.07-.04.1-.06.14-.09.29-.18.44-.27.3-.18.61-.34.93-.5.19-.09.51-.32.57-.54.06-.21-.08-.36-.27-.43-.65-.24-1.46.02-2.04.31-1.33.66-2.59,1.51-3.68,2.51-.14.12-.37.32-.31.55.06.21.36.3.54.32.36.04.73,0,1.07-.1s.72-.22.98-.45h0Z"/>
      <path d="M217.91,138.59c.73-.52,1.49-1.02,2.26-1.49.09-.05.45-.23.06-.03.1-.05.2-.12.3-.17.18-.1.35-.2.53-.3.41-.22.82-.44,1.24-.65.29-.14.6-.37.75-.67.11-.24.13-.56-.05-.78-.46-.54-1.38-.48-1.96-.19-1.75.87-3.44,1.88-5.03,3.02-.46.33-.77,1.08-.17,1.45s1.5.22,2.07-.19h0Z"/>
      <path d="M217.15,138.71c.3-.19.6-.38.9-.56.13-.08.27-.16.4-.24.09-.05.08-.04-.04.02.08-.04.15-.09.23-.13.57-.33,1.15-.65,1.74-.95,1.17-.61,2.37-1.17,3.59-1.68.51-.21,1.12-.88.7-1.43s-1.4-.41-1.96-.18c-2.6,1.08-5.09,2.4-7.46,3.91-.48.31-.76,1.07-.17,1.43.65.39,1.48.19,2.07-.19h0Z"/>
      <path d="M217.83,138.07c.17-.21.37-.35.59-.47.39-.21.8-.4,1.2-.6.82-.4,1.65-.81,2.47-1.21,1.7-.83,3.41-1.67,5.11-2.5.56-.27,1.08-.98.66-1.58s-1.39-.55-1.98-.27c-1.82.89-3.64,1.78-5.47,2.68-.88.43-1.76.86-2.64,1.29s-1.77.91-2.4,1.7c-.43.54-.24,1.25.4,1.51.68.27,1.6.02,2.05-.55h0Z"/>
      <path d="M217.91,137.88c5.37-2.47,10.8-4.82,16.28-7.05.38-.16,1.17-.62.79-1.11s-1.49-.17-1.91,0c-5.48,2.22-10.91,4.57-16.28,7.05-.37.17-1.18.61-.79,1.11.36.46,1.5.19,1.91,0h0Z"/>
      <path d="M222.29,136.27c2.79-1.95,5.81-3.54,9.01-4.7,1.58-.58,3.22-1.04,4.86-1.4,1.49-.33,3.48-.92,4.96-.33.67.27,1.46.18,2.06-.24.36-.25.9-1,.22-1.27-1.92-.77-3.87-.54-5.86-.18s-4.06.86-6.03,1.53c-3.93,1.32-7.66,3.18-11.07,5.55-.46.32-.79.88-.22,1.27s1.57.11,2.06-.24h0Z"/>
      <path d="M235.96,132.5s.39-.35.23-.21c.13-.11.27-.22.4-.33.24-.18.49-.36.74-.53.15-.1.3-.19.45-.28-.24.14.22-.12.26-.14.28-.15.56-.28.84-.42,1.25-.58,2.53-1.08,3.8-1.62.41-.17.97-.65.83-1.16-.15-.54-.84-.6-1.3-.59-2.13.04-4.27.4-6.29,1.07l.87,1.69c.17-.07.34-.13.51-.19.34-.13-.17.06.14-.05s.65-.22.98-.33c.63-.2,1.27-.39,1.91-.56l-.87-1.69c-.33.15-.67.29-1.01.41.32-.12-.11.03-.14.04-.17.06-.35.11-.52.16-.3.09-.61.17-.92.24-.18.04-.35.08-.53.11.34-.07-.22.03-.28.04l1.22,1.11c-.12.14-.26.24-.43.32-.22.07-.25.08-.09.04.16-.03.32-.07.48-.1.38-.07.76-.15,1.15-.22.76-.15,1.53-.29,2.29-.44.53-.1,1.38-.66,1.2-1.3-.19-.7-1.17-.62-1.69-.52-.95.18-1.91.36-2.86.54-1.01.19-2.3.37-2.79,1.42-.38.8.57,1.21,1.22,1.11,1.71-.26,3.36-.72,4.93-1.42.45-.2,1.06-.73.77-1.28s-1.11-.55-1.63-.41c-1.46.39-2.89.86-4.3,1.41-.46.18-1.05.75-.77,1.28s1.13.58,1.63.41c.48-.16.96-.3,1.44-.42.22-.05.44-.11.66-.15.13-.03.27-.05.4-.08.29-.06-.1.01.08-.01.97-.14,1.94-.24,2.92-.26l-.47-1.76c-1.35.56-2.72,1.1-4.04,1.73-1.41.68-2.69,1.52-3.84,2.6-.47.44-.25,1.12.35,1.29.73.2,1.51-.04,2.05-.55h0Z"/>
      <path d="M222.33,137.54c2.45-1.4,5.1-2.3,7.89-2.74l-.66-2.41c-3.05.81-6.1,1.63-9.07,2.71-1.49.54-.91,2.85.66,2.41,1.88-.52,3.79-.82,5.74-.9v-2.5c-1.81.18-3.49.62-5.16,1.35-1.34.58-.36,2.61.96,2.28,4.66-1.15,9.84-1.77,14.48-.25l.66-2.41c-2.28-.55-4.61-.75-6.95-.58-1.59.12-1.61,2.62,0,2.5,2.12-.16,4.21,0,6.29.49,1.57.38,2.19-1.91.66-2.41-5.05-1.66-10.73-1-15.81.25l.96,2.28c1.23-.54,2.56-.88,3.9-1.01,1.57-.16,1.63-2.56,0-2.5-2.17.09-4.31.41-6.4.99l.66,2.41c2.97-1.08,6.02-1.9,9.07-2.71,1.59-.42.89-2.65-.66-2.41-2.99.47-5.86,1.49-8.49,2.99-1.4.8-.14,2.96,1.26,2.16h0Z"/>
      <path d="M219.06,138.39c.24.04.48.08.73.08s.48-.04.71-.07c.37-.06.73-.2,1.06-.38.15-.08.26-.19.35-.32.11-.12.19-.26.22-.43.05-.17.06-.33.02-.5,0-.17-.06-.32-.15-.46-.17-.27-.43-.5-.75-.57l-.33-.04c-.23,0-.44.06-.63.17-.06.03-.13.06-.19.09l.3-.13c-.2.08-.4.14-.61.17l.33-.04c-.21.03-.42.03-.63,0l.33.04s-.07-.01-.1-.02c-.17-.05-.33-.06-.5-.02-.17,0-.32.06-.46.15-.15.08-.26.19-.35.32-.11.12-.19.26-.22.43-.07.32-.06.68.13.96l.2.25c.16.15.34.26.55.32h0Z"/>
      <path d="M220.88,138.68c1.25-.36,2.46-.83,3.63-1.38.27-.13.5-.47.57-.75.08-.3.05-.7-.13-.96s-.43-.5-.75-.57c-.34-.08-.64-.02-.96.13-.26.12-.53.24-.8.36l.3-.13c-.83.35-1.67.65-2.53.9-.3.09-.59.3-.75.57s-.22.66-.13.96c.21.64.86,1.07,1.54.87h0Z"/>
      <path d="M222.13,138.4c2.25-.31,4.52-.41,6.79-.35,1.28.04,1.65-1.69.63-2.33-.78-.49-1.56-.71-2.47-.82-1.42-.18-1.65,2.09-.33,2.46,2.46.67,5.05.45,7.56.72s5.13.89,7.6,1.72c1.53.52,2.18-1.9.66-2.41-2.44-.83-4.94-1.4-7.49-1.72s-5.2-.04-7.67-.72l-.33,2.46c.45.06.83.25,1.21.48l.63-2.33c-2.5-.07-4.98.09-7.46.43-.67.09-1.03.95-.87,1.54.19.72.87.96,1.54.87h0Z"/>
      <path d="M211.79,140.42l.91-.62c.14-.09.24-.21.29-.37.03-.08.03-.17.01-.25,0-.08-.03-.16-.07-.23-.09-.13-.21-.25-.37-.29s-.34-.03-.48.06l-.91.62c-.14.09-.24.21-.29.37-.03.08-.03.17-.01.25,0,.08.03.16.07.23.09.13.21.25.37.29s.34.03.48-.06h0Z"/>
      <path d="M213.2,139.53l.51-.39c.07-.04.13-.09.18-.16.06-.06.09-.13.11-.21.03-.08.03-.17.01-.25,0-.08-.03-.16-.07-.23l-.1-.13c-.08-.08-.17-.13-.28-.16l-.17-.02c-.11,0-.22.03-.32.09l-.51.39c-.07.04-.13.09-.18.16-.06.06-.09.13-.11.21-.03.08-.03.17-.01.25,0,.08.03.16.07.23l.1.13c.08.08.17.13.28.16l.17.02c.11,0,.22-.03.32-.09h0Z"/>
      <path d="M211.54,141.23c1.55-1.36,3.28-2.5,5.13-3.42.3-.15.39-.58.22-.86-.18-.31-.55-.37-.86-.22-1.95.96-3.75,2.18-5.38,3.61-.25.22-.23.66,0,.88.25.25.63.22.88,0h0Z"/>
      <path d="M212.53,139.69l.38-.03-.13.98c2.1-1.19,4.29-2.15,6.59-2.88l-.48-1.14c-2.36,1.05-4.73,2.11-7.09,3.16-.64.28-.18,1.4.48,1.14l6.97-2.75-.33-1.21c-1.57.65-3.15,1.31-4.72,1.96-.72.3-.47,1.43.33,1.21,1.63-.45,3.2-1.04,4.73-1.76l-.63-1.08c-1,.49-2.02.92-3.07,1.28l.33,1.21,3.12-1.13-.33-1.21c-.75.29-1.46.62-2.15,1.03-.59.35-.2,1.41.48,1.14.94-.37,1.89-.75,2.83-1.12l-.48-1.14c-.64.38-1.3.71-2,.98l.48,1.14c.8-.48,1.64-.8,2.56-.98l-.71-.92c-.16.25-.37.41-.68.45l.44,1.07c.37-.34.89-.71.62-1.28-.2-.42-.69-.54-1.12-.46-.77.14-1.57.56-2.31.82-.87.32-1.73.63-2.6.95-3.17,1.16-6.23,2.28-9.08,4.14l.76.98c1.25-1.12,2.61-2.07,4.09-2.86,1.23-.65,2.43-1.21,3.28-2.35.38-.51-.35-1.18-.86-.86-2.67,1.72-5.35,3.45-8.02,5.17l.76.98c.66-.66,1.39-1.19,2.22-1.62.71-.37.08-1.45-.63-1.08-.92.48-1.74,1.08-2.47,1.82-.49.49.15,1.37.76.98,2.67-1.72,5.35-3.45,8.02-5.17l-.86-.86c-.85,1.14-2.38,1.62-3.57,2.31-1.29.75-2.5,1.65-3.61,2.65-.53.47.16,1.37.76.98,2.1-1.37,4.27-2.36,6.62-3.22,1.15-.42,2.3-.84,3.46-1.26.58-.21,1.16-.42,1.73-.63.34-.12.67-.25,1.01-.37.14-.05.29-.11.43-.16.37-.03.39-.15.07-.36l.16-.61-.51.48c-.36.34-.11,1.13.44,1.07.77-.09,1.33-.41,1.75-1.07.32-.49-.21-1.01-.71-.92-1.02.2-1.97.57-2.86,1.1-.58.35-.2,1.41.48,1.14.8-.31,1.56-.67,2.3-1.11.59-.35.2-1.41-.48-1.14l-2.83,1.12.48,1.14c.6-.35,1.21-.66,1.86-.9.74-.28.43-1.48-.33-1.21l-3.12,1.13c-.75.27-.43,1.47.33,1.21,1.15-.4,2.28-.86,3.37-1.4.73-.36.09-1.42-.63-1.08-1.43.67-2.91,1.21-4.43,1.63l.33,1.21c1.57-.65,3.15-1.31,4.72-1.96.73-.3.42-1.5-.33-1.21l-6.97,2.75.48,1.14c2.36-1.05,4.73-2.11,7.09-3.16.65-.29.19-1.36-.48-1.14-2.39.77-4.7,1.77-6.88,3.01-.38.21-.38.68-.13.98.38.46.98.42,1.39.03.58-.56-.3-1.44-.88-.88h0Z"/>
    </g>
  </g>
</svg>