<?xml version="1.0" encoding="UTF-8"?>
<svg id="Layer_2" xmlns="http://www.w3.org/2000/svg" viewBox="0 0 1333.19 518.39">
  <defs>
    <style>
      .cls-1 {
        fill: #fff;
        fill-rule: evenodd;
      }
    </style>
  </defs>
  <g id="svg2">
    <g id="g28">
      <path id="path30" class="cls-1" d="M343.92,0c80.06,0,150.57,39.91,191.76,100.45,19.88-8.8,41.93-13.69,65.17-13.69,63.83,0,118.8,36.99,143.67,90.21,21.09-12.32,45.74-19.4,72.09-19.4,77.53,0,140.42,61.29,140.56,136.95,21.09-24.36,52.64-39.84,87.88-39.84,59.44,0,108.34,44.03,114.36,100.48h36.2c75.67,0,137.58,73.45,137.58,163.23H0c0-89.78,61.91-163.23,137.58-163.23h19.12c-26.98-36.79-42.85-81.87-42.85-130.57C113.85,100.55,216.84,0,343.92,0"/>
    </g>
  </g>
</svg>