<?xml version="1.0" encoding="UTF-8"?>
<svg id="Layer_2" xmlns="http://www.w3.org/2000/svg" viewBox="0 0 1205.97 665.51">
  <defs>
    <style>
      .cls-1 {
        fill: #fff;
        fill-rule: evenodd;
      }
    </style>
  </defs>
  <g id="svg2">
    <g id="g22">
      <path id="path24" class="cls-1" d="M355.73,172.98C402.09,70.97,504.88,0,624.24,0s228.01,75.07,272.34,181.79c15.36-14.68,36.17-23.7,59.11-23.7,47.24,0,85.56,38.32,85.56,85.59,0,20.91-7.5,40.09-19.95,54.95,17.41,12.82,32.03,29.19,42.81,48.06,14.41-11.06,32.46-17.63,52.04-17.63,47.24,0,85.56,38.31,85.56,85.58,0,20.47-7.18,39.26-19.17,53.98,14.72,20.44,23.42,45.47,23.42,72.43,0,68.45-56.02,124.45-124.46,124.45H124.44c-68.44,0-124.44-56-124.44-124.46,0-49.21,28.93-91.99,70.64-112.15-.31-2.97-.45-5.98-.45-9.03,0-47.26,38.3-85.58,85.56-85.58,19.58,0,37.61,6.57,52.04,17.63,10.76-18.87,25.41-35.26,42.81-48.07-12.47-14.87-19.95-34.02-19.95-54.93,0-47.28,38.3-85.59,85.56-85.59,14.25,0,27.7,3.49,39.51,9.64"/>
    </g>
  </g>
</svg>