<?xml version="1.0" encoding="UTF-8"?>
<svg id="Layer_2" xmlns="http://www.w3.org/2000/svg" viewBox="0 0 1804.77 736.55">
  <defs>
    <style>
      .cls-1 {
        fill: #fff;
        fill-rule: evenodd;
      }
    </style>
  </defs>
  <g id="svg2">
    <path id="path26" class="cls-1" d="M571.22,231.41C606.55,98.19,727.95,0,872.3,0s271.37,102.8,303.4,240.75c26.97-12.29,56.96-19.15,88.53-19.15,96.56,0,178.15,64.04,204.61,151.96,9.48-1.8,19.25-2.73,29.25-2.73,81.83,0,148.91,63.12,155.19,143.33,85.97,19.93,151.48,112.31,151.48,222.39H0c0-124.51,83.81-226.37,186.25-226.37h8.64c12.31-73.67,76.36-129.83,153.53-129.83,10,0,19.78.95,29.25,2.75,25.45-84.55,101.87-147.01,193.55-151.68"/>
  </g>
</svg>