<?xml version="1.0" encoding="UTF-8"?>
<svg id="Layer_2" xmlns="http://www.w3.org/2000/svg" viewBox="0 0 1505.33 695.77">
  <defs>
    <style>
      .cls-1 {
        fill: #fff;
        fill-rule: evenodd;
      }
    </style>
  </defs>
  <g id="svg2">
    <path id="path20" class="cls-1" d="M749.94,0c137.55,0,252.81,95.44,283.18,223.7,28.33-15.9,61-24.95,95.8-24.95,105.03,0,190.78,82.56,195.85,186.33h25.23c85.43,0,155.34,69.91,155.34,155.35s-69.91,155.34-155.34,155.34H155.35C69.91,695.77,0,625.88,0,540.43s69.91-155.35,155.35-155.35h16.06c.54-107.83,88.13-195.08,196.1-195.08,36.83,0,71.29,10.15,100.73,27.8C500.68,92.53,614.51,0,749.94,0"/>
  </g>
</svg>