<?xml version="1.0" encoding="UTF-8"?>
<svg id="Layer_2" xmlns="http://www.w3.org/2000/svg" viewBox="0 0 1071.3 489.68">
  <defs>
    <style>
      .cls-1 {
        fill: #fff;
        fill-rule: evenodd;
      }
    </style>
  </defs>
  <g id="svg2">
    <g id="g32">
      <path id="path34" class="cls-1" d="M1071.3,242.87C1071.3,108.73,962.56,0,828.42,0c-92.91,0-173.62,52.16-214.46,128.78-21.26-9.88-44.91-15.38-69.89-15.38-52.45,0-99.22,24.33-129.62,62.32-17.76-18.87-42.96-30.64-70.9-30.64-53.77,0-97.36,43.59-97.36,97.35,0,2.52.13,5.03.28,7.51-3.34-.64-6.81-.97-10.38-.97-30.59,0-55.41,24.81-55.41,55.41,0,8.15,1.77,15.89,4.92,22.87C129.02,335.36,0,405.3,0,489.68h870.94c0-2.56-.06-5.09-.13-7.63,113.92-20.05,200.49-119.51,200.49-239.19"/>
    </g>
  </g>
</svg>